# Blender v2.91.2 OBJ File: 'Chara1.blend'
# www.blender.org
mtllib Chara1.mtl
o Cube_Cube.001
v -0.224880 0.561082 0.356124
v -0.132364 1.176919 0.195903
v -0.224880 0.561082 -0.356124
v -0.113495 1.182661 -0.186420
v 0.224880 0.561082 0.356124
v 0.124888 1.176919 0.198590
v 0.224880 0.561082 -0.356124
v 0.113495 1.182661 -0.186420
v -0.253637 0.513320 0.000000
v -0.180017 1.220634 0.000000
v 0.253637 0.513320 0.000000
v 0.180017 1.220634 0.000000
v -0.142917 0.328194 0.096517
v -0.126714 0.355107 0.297183
v 0.126714 0.355107 0.297183
v 0.142917 0.328194 0.096517
v -0.142917 0.110044 0.090194
v -0.126714 0.136957 0.290860
v 0.126714 0.136957 0.290860
v 0.142917 0.110044 0.090194
v -0.202674 0.017305 0.054991
v -0.179696 0.002136 0.341706
v 0.179696 0.002136 0.341706
v 0.202674 0.017305 0.054991
v 0.623131 0.055731 0.346970
v 0.646110 0.063570 0.051293
v 0.623131 0.006895 0.346079
v 0.646110 0.022063 0.059363
v 0.124477 0.351143 -0.297830
v -0.124477 0.351143 -0.297830
v 0.140395 0.324706 -0.100706
v -0.140395 0.324706 -0.100706
v 0.124477 0.150782 -0.302616
v -0.124477 0.150782 -0.302616
v 0.140395 0.124344 -0.105492
v -0.140395 0.124344 -0.105492
v 0.186704 0.021776 -0.351159
v -0.186704 0.021776 -0.351159
v 0.210579 0.016599 -0.064265
v -0.210579 0.016599 -0.064265
v 0.649288 0.068948 -0.059208
v 0.625413 0.108602 -0.354874
v 0.649288 0.017892 -0.066055
v 0.625413 0.023069 -0.352949
v -0.216816 0.872814 0.343354
v -0.216816 0.872814 -0.343354
v 0.216816 0.872814 -0.343354
v 0.216816 0.872814 0.343354
v 0.244542 0.869165 0.000000
v -0.244542 0.869165 0.000000
v -0.178967 1.038448 0.319197
v -0.193811 1.032705 -0.321770
v 0.193811 1.032705 -0.321770
v 0.178967 1.038448 0.319197
v 0.230470 1.047183 0.000000
v -0.230470 1.047183 0.000000
v -0.154587 1.199419 0.124795
v 0.159017 1.197814 0.134240
v -0.166503 1.202712 -0.120151
v 0.166086 1.202159 -0.123863
v 0.134485 1.225474 -0.000894
v 0.071751 1.195022 0.096042
v 0.062878 1.200523 -0.089097
v -0.129672 1.225474 -0.000894
v -0.059745 1.196013 0.096783
v -0.064669 1.200873 -0.096978
v -0.129672 1.316033 0.000026
v 0.134485 1.316033 0.000026
v 0.062878 1.291082 -0.088176
v 0.071751 1.285581 0.096962
v -0.059745 1.286571 0.097703
v -0.064669 1.291431 -0.096057
v -0.147558 1.345194 0.000302
v 0.152614 1.345194 0.000302
v 0.071244 1.338364 -0.099925
v 0.081327 1.339393 0.110455
v -0.068097 1.340519 0.111297
v -0.073693 1.338761 -0.108880
v -0.207807 1.384956 -0.001228
v 0.213212 1.384956 -0.001228
v 0.099083 1.375377 -0.141805
v 0.113225 1.376820 0.153272
v -0.096355 1.378398 0.154453
v -0.104204 1.375933 -0.154366
v -0.206375 1.463435 -0.004967
v 0.325589 1.463435 -0.004967
v 0.121584 1.451707 -0.177066
v 0.138897 1.453474 0.184177
v -0.117677 1.455406 0.185622
v -0.127286 1.452389 -0.192444
v -0.220385 1.577624 -0.006068
v 0.275834 1.577624 -0.006068
v 0.128378 1.565247 -0.187697
v 0.146650 1.567111 0.193549
v -0.124132 1.569151 0.195075
v -0.134273 1.565966 -0.203926
v -0.189363 1.658814 -0.006657
v 0.245444 1.658814 -0.006657
v 0.114635 1.647834 -0.167781
v 0.130844 1.649488 0.170424
v -0.109368 1.651297 0.171777
v -0.118364 1.648472 -0.182177
v -0.137228 1.718155 -0.006266
v 0.146248 1.718155 -0.006266
v 0.069404 1.711705 -0.100919
v 0.078926 1.712676 0.097760
v -0.062187 1.713739 0.098555
v -0.067471 1.712080 -0.109376
v -0.043662 1.741927 -0.005984
v 0.053372 1.741927 -0.005984
v 0.027068 1.739719 -0.038383
v 0.030328 1.740051 0.029624
v -0.017975 1.740415 0.029897
v -0.019784 1.739847 -0.041278
v 0.551611 1.371457 -0.155984
v 0.665740 1.381037 -0.015407
v 0.565753 1.372900 0.139093
v 0.520813 1.429307 -0.133722
v 0.615325 1.437240 -0.017307
v 0.532524 1.430502 0.110637
v -0.113495 1.154278 -0.294935
v 0.113495 1.154278 -0.294935
v -0.193811 1.038008 -0.481154
v 0.193811 1.038008 -0.481154
v -0.113550 0.584630 -0.421292
v 0.113550 0.584630 -0.421292
v -0.113550 0.587737 -0.514673
v 0.113550 0.587737 -0.514673
v -0.179975 1.038002 0.477349
v -0.133371 1.137954 0.354055
v 0.123880 1.137954 0.356742
v 0.177960 1.038002 0.477349
v 0.135355 0.585202 0.404937
v -0.135600 0.585202 0.404937
v 0.134593 0.584864 0.524657
v -0.136363 0.584864 0.524657
vt 0.562500 0.125000
vt 0.625000 0.125000
vt 0.625000 0.183994
vt 0.625000 0.250000
vt 0.562500 0.250000
vt 0.562500 0.500000
vt 0.562500 0.250000
vt 0.562500 0.500000
vt 0.562500 0.625000
vt 0.625000 0.625000
vt 0.625000 0.690253
vt 0.625000 0.750000
vt 0.562500 0.750000
vt 0.875000 0.750000
vt 0.875000 0.750000
vt 0.625000 0.750000
vt 0.375000 0.625000
vt 0.375000 0.750000
vt 0.375000 0.750000
vt 0.375000 0.625000
vt 0.681920 0.625000
vt 0.694717 0.688973
vt 0.625000 0.500000
vt 0.875000 0.500000
vt 0.875000 0.566006
vt 0.805971 0.565502
vt 0.690087 0.564657
vt 0.625000 0.564183
vt 0.375000 0.500000
vt 0.375000 0.625000
vt 0.375000 0.500000
vt 0.562500 0.000000
vt 0.625000 0.000000
vt 0.625000 0.064338
vt 0.125000 0.625000
vt 0.375000 0.625000
vt 0.125000 0.625000
vt 0.375000 1.000000
vt 0.375000 1.000000
vt 0.125000 0.625000
vt 0.375000 0.000000
vt 0.375000 0.125000
vt 0.375000 0.125000
vt 0.375000 0.000000
vt 0.375000 0.750000
vt 0.375000 0.750000
vt 0.375000 0.625000
vt 0.375000 1.000000
vt 0.375000 0.125000
vt 0.375000 0.000000
vt 0.125000 0.625000
vt 0.375000 0.625000
vt 0.375000 0.750000
vt 0.125000 0.750000
vt 0.375000 0.125000
vt 0.375000 0.000000
vt 0.375000 1.000000
vt 0.375000 0.750000
vt 0.375000 0.625000
vt 0.125000 0.625000
vt 0.125000 0.625000
vt 0.375000 0.625000
vt 0.375000 0.250000
vt 0.375000 0.250000
vt 0.375000 0.125000
vt 0.375000 0.125000
vt 0.375000 0.250000
vt 0.375000 0.250000
vt 0.375000 0.125000
vt 0.375000 0.500000
vt 0.125000 0.500000
vt 0.375000 0.500000
vt 0.375000 0.625000
vt 0.125000 0.625000
vt 0.375000 0.625000
vt 0.375000 0.625000
vt 0.375000 0.500000
vt 0.375000 0.500000
vt 0.500000 0.000000
vt 0.500000 0.125000
vt 0.500000 0.500000
vt 0.500000 0.625000
vt 0.500000 0.750000
vt 0.500000 1.000000
vt 0.500000 0.250000
vt 0.562500 1.000000
vt 0.690087 0.564657
vt 0.805971 0.565502
vt 0.805971 0.565502
vt 0.690087 0.564657
vt 0.808003 0.686892
vt 0.875000 0.685662
vt 0.681920 0.625000
vt 0.829894 0.625000
vt 0.875000 0.625000
vt 0.829894 0.625000
vt 0.808003 0.686892
vt 0.808003 0.686892
vt 0.829894 0.625000
vt 0.694717 0.688973
vt 0.694717 0.688973
vt 0.694717 0.688973
vt 0.808003 0.686892
vt 0.829894 0.625000
vt 0.805971 0.565502
vt 0.681920 0.625000
vt 0.690087 0.564657
vt 0.805971 0.565502
vt 0.690087 0.564657
vt 0.808003 0.686892
vt 0.829894 0.625000
vt 0.681920 0.625000
vt 0.694717 0.688973
vt 0.694717 0.688973
vt 0.808003 0.686892
vt 0.829894 0.625000
vt 0.805971 0.565502
vt 0.681920 0.625000
vt 0.681920 0.625000
vt 0.690087 0.564657
vt 0.681920 0.625000
vt 0.694717 0.688973
vt 0.681920 0.625000
vt 0.681920 0.625000
vt 0.694717 0.688973
vt 0.690087 0.564657
vt 0.805971 0.565502
vt 0.690087 0.564657
vt 0.690087 0.564657
vt 0.681920 0.625000
vt 0.808003 0.686892
vt 0.694717 0.688973
vt 0.808003 0.686892
vt 0.829894 0.625000
vt 0.805971 0.565502
vt 0.829894 0.625000
vt 0.829894 0.625000
vt 0.805971 0.565502
vt 0.681920 0.625000
vt 0.694717 0.688973
vt 0.690087 0.564657
vt 0.808003 0.686892
vt 0.694717 0.688973
vt 0.690087 0.564657
vt 0.562500 0.250000
vt 0.625000 0.250000
vt 0.625000 0.500000
vt 0.562500 0.500000
vt 0.875000 0.500000
vt 0.562500 0.250000
vt 0.562500 0.500000
vt 0.562500 0.750000
vt 0.625000 1.000000
vt 0.562500 1.000000
vt 0.562500 0.000000
vt 0.562500 0.000000
vt 0.562500 0.000000
vt 0.625000 0.000000
vt 0.562500 1.000000
vt 0.562500 0.750000
vt 0.562500 0.750000
vt 0.562500 1.000000
vn -0.8950 0.3893 -0.2178
vn 0.0000 -0.2168 0.9762
vn 0.9109 0.3493 0.2196
vn -0.0025 0.9710 0.2392
vn 0.8795 -0.4570 0.1323
vn -0.0463 0.9770 0.2084
vn -0.0004 0.9791 -0.2035
vn 0.8794 -0.4573 -0.1323
vn 0.8958 0.3876 -0.2177
vn -0.9124 0.3508 0.2108
vn 0.0000 0.0290 -0.9996
vn 0.0000 -0.2751 0.9614
vn 0.0000 -0.4623 -0.8867
vn -0.8795 -0.4570 0.1323
vn 0.1271 0.9915 -0.0281
vn 0.0000 -0.0290 0.9996
vn 0.9967 -0.0023 0.0808
vn -0.9967 -0.0023 0.0808
vn 0.0000 -0.9986 -0.0528
vn -0.8927 0.4465 0.0610
vn 0.0000 0.3549 -0.9349
vn 0.0000 0.3529 0.9357
vn 0.9969 0.0063 0.0789
vn -0.0276 0.1862 -0.9821
vn -0.0418 0.2510 0.9671
vn 0.0112 -0.9986 -0.0519
vn 0.0000 -0.0239 0.9997
vn -0.8794 -0.4573 -0.1323
vn 0.0000 -0.4710 0.8821
vn 0.0000 -0.2675 -0.9635
vn -0.8716 0.4887 -0.0397
vn 0.9968 0.0019 -0.0802
vn -0.9968 0.0019 -0.0802
vn 0.0000 0.0239 -0.9997
vn 0.0000 -0.9998 -0.0180
vn 0.0000 0.3522 -0.9359
vn 0.0000 0.3574 0.9340
vn -0.0348 0.1968 0.9798
vn 0.9967 0.0029 -0.0815
vn 0.0029 -0.9998 -0.0183
vn -0.0477 0.1989 -0.9789
vn 0.0962 0.9875 0.1247
vn -0.9965 0.0271 0.0785
vn 0.9965 0.0271 -0.0785
vn 0.0000 0.0409 0.9992
vn 0.9965 0.0271 0.0785
vn 0.0000 0.0409 -0.9992
vn -0.9965 0.0271 -0.0785
vn -0.9806 0.1565 0.1185
vn 0.9886 0.1147 -0.0976
vn 0.0000 0.1443 0.9895
vn 0.9806 0.1565 0.1185
vn 0.0000 0.1338 -0.9910
vn -0.9886 0.1147 -0.0976
vn 0.0590 -0.2505 -0.9663
vn -0.0008 0.9794 0.2018
vn -0.0225 0.9812 -0.1918
vn 0.7755 0.0064 -0.6314
vn 0.0617 0.0101 -0.9980
vn 0.0085 0.9817 -0.1900
vn 0.0319 0.9774 0.2089
vn -0.7912 -0.3352 0.5116
vn -0.8276 0.0057 -0.5613
vn 0.0056 -0.0102 0.9999
vn 0.8403 -0.0055 0.5421
vn -0.8139 -0.0059 0.5809
vn -0.0020 -0.7522 0.6589
vn -0.5193 -0.7986 -0.3043
vn 0.8135 -0.3488 0.4654
vn -0.7971 -0.3599 -0.4848
vn 0.0036 -0.2438 0.9698
vn 0.7562 -0.3455 -0.5557
vn 0.0544 -0.4319 -0.9003
vn -0.8528 -0.1946 0.4847
vn 0.5061 -0.7850 -0.3573
vn -0.5236 -0.7803 0.3420
vn 0.0379 -0.7612 -0.6475
vn 0.5286 -0.7940 0.3003
vn 0.0050 -0.0825 0.9966
vn -0.9162 -0.1058 -0.3865
vn 0.0761 0.9864 -0.1460
vn -0.8611 -0.2411 -0.4476
vn 0.0024 -0.3746 0.9272
vn -0.0105 -0.9982 -0.0594
vn 0.7933 0.3008 0.5293
vn 0.0605 0.2435 -0.9680
vn 0.7028 0.0963 -0.7048
vn -0.9016 -0.0964 0.4216
vn 0.0611 -0.0967 -0.9934
vn 0.7676 0.1186 0.6299
vn 0.4626 0.7761 -0.4285
vn 0.0094 0.7579 0.6523
vn -0.8728 0.3000 -0.3849
vn 0.0075 0.2716 0.9624
vn 0.7380 0.2718 -0.6177
vn -0.8599 0.3013 0.4120
vn -0.2397 0.9461 -0.2179
vn 0.2432 0.9476 0.2073
vn -0.6052 0.7095 0.3611
vn 0.0437 0.7370 -0.6745
vn 0.4812 0.8021 0.3537
vn -0.6060 0.7152 -0.3483
vn 0.0022 0.9980 -0.0633
vn 0.0026 0.9989 0.0472
vn 0.0091 0.9301 0.3672
vn 0.2388 0.9362 -0.2577
vn -0.2412 0.9469 0.2126
vn 0.0268 0.9189 -0.3935
vn 0.6549 0.6029 0.4556
vn 0.6310 0.5475 -0.5496
vn 0.0869 0.9882 0.1259
vn 0.1027 -0.0124 0.9946
vn -0.0063 -0.9973 0.0731
vn 0.0312 -0.0945 -0.9950
vn 0.0000 0.8482 -0.5296
vn 0.0000 0.9675 -0.2531
vn 0.8285 0.5579 -0.0481
vn -0.8285 0.5579 -0.0481
vn 0.0000 -0.9994 -0.0333
vn -0.9845 -0.1751 -0.0058
vn 0.9845 -0.1751 -0.0058
vn 0.0000 0.0742 -0.9972
vn -0.0028 0.7734 0.6339
vn 0.8831 0.4649 0.0636
vn -0.9953 -0.0965 -0.0066
vn -0.9140 0.4033 0.0444
vn 0.0000 -1.0000 -0.0028
vn 0.0000 0.1038 0.9946
vn 0.0000 -0.1859 -0.9826
vn 0.9955 -0.0946 0.0061
usemtl Material.001
s off
f 56/1/1 10/2/1 59/3/1 4/4/1 52/5/1
f 53/6/2 52/5/2 125/7/2 126/8/2
f 55/9/3 12/10/3 58/11/3 6/12/3 54/13/3
f 6/12/4 2/14/4 130/15/4 131/16/4
f 11/17/5 5/18/5 15/19/5 16/20/5
f 12/10/6 61/21/6 62/22/6 58/11/6
f 8/23/7 4/24/7 59/25/7 66/26/7 63/27/7 60/28/7
f 7/29/8 11/17/8 31/30/8 29/31/8
f 53/6/9 8/23/9 60/28/9 12/10/9 55/9/9
f 51/32/10 2/33/10 57/34/10 10/2/10 56/1/10
f 13/35/11 16/20/11 20/36/11 17/37/11
f 5/18/12 1/38/12 14/39/12 15/19/12
f 9/40/13 11/17/13 16/20/13 13/35/13
f 1/41/14 9/42/14 13/43/14 14/44/14
f 20/36/15 19/45/15 25/46/15 26/47/15
f 15/19/16 14/39/16 18/48/16 19/45/16
f 16/20/17 15/19/17 19/45/17 20/36/17
f 14/44/18 13/43/18 17/49/18 18/50/18
f 21/51/19 24/52/19 23/53/19 22/54/19
f 18/50/20 17/49/20 21/55/20 22/56/20
f 17/37/21 20/36/21 24/52/21 21/51/21
f 19/45/22 18/48/22 22/57/22 23/53/22
f 26/47/23 25/46/23 27/58/23 28/59/23
f 24/52/24 20/36/24 26/47/24 28/59/24
f 19/45/25 23/53/25 27/58/25 25/46/25
f 23/53/26 24/52/26 28/59/26 27/58/26
f 31/30/27 32/60/27 36/61/27 35/62/27
f 9/42/28 3/63/28 30/64/28 32/65/28
f 11/17/29 9/40/29 32/60/29 31/30/29
f 3/63/30 7/29/30 29/31/30 30/64/30
f 36/66/31 34/67/31 38/68/31 40/69/31
f 29/31/32 31/30/32 35/62/32 33/70/32
f 32/65/33 30/64/33 34/67/33 36/66/33
f 30/64/34 29/31/34 33/70/34 34/67/34
f 38/71/35 37/72/35 39/73/35 40/74/35
f 34/67/36 33/70/36 37/72/36 38/68/36
f 35/62/37 36/61/37 40/74/37 39/73/37
f 35/62/38 39/73/38 43/75/38 41/76/38
f 42/77/39 41/76/39 43/75/39 44/78/39
f 39/73/40 37/72/40 44/78/40 43/75/40
f 37/72/41 33/70/41 42/77/41 44/78/41
f 33/70/42 35/62/42 41/76/42 42/77/42
f 1/41/43 45/79/43 50/80/43 9/42/43
f 7/29/44 47/81/44 49/82/44 11/17/44
f 5/18/45 48/83/45 45/84/45 1/38/45
f 11/17/46 49/82/46 48/83/46 5/18/46
f 3/63/47 46/85/47 47/81/47 7/29/47
f 9/42/48 50/80/48 46/85/48 3/63/48
f 45/79/49 51/32/49 56/1/49 50/80/49
f 47/81/50 53/6/50 55/9/50 49/82/50
f 48/83/51 54/13/51 51/86/51 45/84/51
f 49/82/52 55/9/52 54/13/52 48/83/52
f 46/85/53 52/5/53 53/6/53 47/81/53
f 50/80/54 56/1/54 52/5/54 46/85/54
f 69/87/55 72/88/55 78/89/55 75/90/55
f 58/11/56 62/22/56 65/91/56 57/92/56 2/14/56 6/12/56
f 60/28/57 63/27/57 61/21/57 12/10/57
f 61/21/58 63/27/58 69/87/58 68/93/58
f 63/27/59 66/26/59 72/88/59 69/87/59
f 64/94/60 66/26/60 59/25/60 10/95/60
f 65/91/61 64/94/61 10/95/61 57/92/61
f 67/96/62 71/97/62 77/98/62 73/99/62
f 66/26/63 64/94/63 67/96/63 72/88/63
f 65/91/64 62/22/64 70/100/64 71/97/64
f 62/22/65 61/21/65 68/93/65 70/100/65
f 64/94/66 65/91/66 71/97/66 67/96/66
f 77/98/67 76/101/67 82/102/67 83/103/67
f 78/89/68 73/99/68 79/104/68 84/105/68
f 70/100/69 68/93/69 74/106/69 76/101/69
f 72/88/70 67/96/70 73/99/70 78/89/70
f 71/97/71 70/100/71 76/101/71 77/98/71
f 68/93/72 69/87/72 75/90/72 74/106/72
f 81/107/73 84/105/73 90/108/73 87/109/73
f 79/104/74 83/103/74 89/110/74 85/111/74
f 74/106/75 75/90/75 81/107/75 80/112/75
f 73/99/76 77/98/76 83/103/76 79/104/76
f 75/90/77 78/89/77 84/105/77 81/107/77
f 76/101/78 74/106/78 80/112/78 82/102/78
f 89/110/79 88/113/79 94/114/79 95/115/79
f 90/108/80 85/111/80 91/116/80 96/117/80
f 87/109/81 86/118/81 119/119/81 118/120/81
f 84/105/82 79/104/82 85/111/82 90/108/82
f 83/103/83 82/102/83 88/113/83 89/110/83
f 82/102/84 80/112/84 116/121/84 117/122/84
f 94/114/85 92/123/85 98/124/85 100/125/85
f 93/126/86 96/117/86 102/127/86 99/128/86
f 86/118/87 87/109/87 93/126/87 92/123/87
f 85/111/88 89/110/88 95/115/88 91/116/88
f 87/109/89 90/108/89 96/117/89 93/126/89
f 88/113/90 86/118/90 92/123/90 94/114/90
f 98/124/91 99/128/91 105/129/91 104/130/91
f 101/131/92 100/125/92 106/132/92 107/133/92
f 96/117/93 91/116/93 97/134/93 102/127/93
f 95/115/94 94/114/94 100/125/94 101/131/94
f 92/123/95 93/126/95 99/128/95 98/124/95
f 91/116/96 95/115/96 101/131/96 97/134/96
f 108/135/97 103/136/97 109/137/97 114/138/97
f 106/132/98 104/130/98 110/139/98 112/140/98
f 97/134/99 101/131/99 107/133/99 103/136/99
f 99/128/100 102/127/100 108/135/100 105/129/100
f 100/125/101 98/124/101 104/130/101 106/132/101
f 102/127/102 97/134/102 103/136/102 108/135/102
f 110/139/103 111/141/103 114/138/103 109/137/103
f 112/140/104 110/139/104 109/137/104 113/142/104
f 107/133/105 106/132/105 112/140/105 113/142/105
f 104/130/106 105/129/106 111/141/106 110/139/106
f 103/136/107 107/133/107 113/142/107 109/137/107
f 105/129/108 108/135/108 114/138/108 111/141/108
f 117/122/109 116/121/109 119/119/109 120/143/109
f 116/121/110 115/144/110 118/120/110 119/119/110
f 86/118/111 88/113/111 120/143/111 119/119/111
f 88/113/112 82/102/112 117/122/112 120/143/112
f 80/112/113 81/107/113 115/144/113 116/121/113
f 81/107/114 87/109/114 118/120/114 115/144/114
f 123/145/115 121/146/115 122/147/115 124/148/115
f 4/24/116 8/23/116 122/147/116 121/149/116
f 8/23/117 53/6/117 124/148/117 122/147/117
f 52/5/118 4/4/118 121/146/118 123/145/118
f 126/8/119 125/7/119 127/150/119 128/151/119
f 52/5/120 123/145/120 127/150/120 125/7/120
f 124/148/121 53/6/121 126/8/121 128/151/121
f 123/145/122 124/148/122 128/151/122 127/150/122
f 132/152/123 131/16/123 130/153/123 129/154/123
f 54/13/124 6/12/124 131/16/124 132/152/124
f 129/155/125 51/32/125 134/156/125 136/157/125
f 2/33/126 51/32/126 129/155/126 130/158/126
f 134/159/127 133/160/127 135/161/127 136/162/127
f 132/152/128 129/154/128 136/162/128 135/161/128
f 51/86/129 54/13/129 133/160/129 134/159/129
f 54/13/130 132/152/130 135/161/130 133/160/130
